<svg width="29" height="33" viewBox="0 0 29 33" fill="none" xmlns="http://www.w3.org/2000/svg">
<path fill-rule="evenodd" clip-rule="evenodd" d="M9.05051 2.05036C10.3633 0.737536 12.1439 0 14.0005 0C15.8571 0 17.6377 0.737536 18.9505 2.05036C20.2633 3.36318 21.0009 5.14375 21.0009 7.00036C21.0009 8.85697 20.2633 10.6375 18.9505 11.9504L14.0005 16.9004L9.05051 11.9504C8.40042 11.3003 7.88474 10.5286 7.53291 9.67931C7.18108 8.82998 7 7.91967 7 7.00036C7 6.08104 7.18108 5.17073 7.53291 4.32141C7.88474 3.47208 8.40042 2.70038 9.05051 2.05036V2.05036ZM14.0005 9.00036C14.5309 9.00036 15.0396 8.78964 15.4147 8.41457C15.7898 8.0395 16.0005 7.53079 16.0005 7.00036C16.0005 6.46992 15.7898 5.96122 15.4147 5.58614C15.0396 5.21107 14.5309 5.00036 14.0005 5.00036C13.4701 5.00036 12.9614 5.21107 12.5863 5.58614C12.2112 5.96122 12.0005 6.46992 12.0005 7.00036C12.0005 7.53079 12.2112 8.0395 12.5863 8.41457C12.9614 8.78964 13.4701 9.00036 14.0005 9.00036Z" fill="black"/>
<path d="M19 8L10 12.5M10 32L1.8295 27.914C1.58038 27.7895 1.37083 27.5981 1.22433 27.3613C1.07782 27.1244 1.00015 26.8515 1 26.573V10.427C1.00014 10.1714 1.06558 9.9201 1.19012 9.69691C1.31465 9.47372 1.49416 9.28605 1.71159 9.15171C1.92903 9.01737 2.17718 8.94082 2.43251 8.92932C2.68784 8.91782 2.94187 8.97175 3.1705 9.086L10 12.5V32ZM10 32L19 27.5L10 32ZM10 32V12.5V32ZM19 27.5L25.8295 30.914C26.0581 31.0282 26.3122 31.0822 26.5675 31.0707C26.8228 31.0592 27.071 30.9826 27.2884 30.8483C27.5058 30.714 27.6853 30.5263 27.8099 30.3031C27.9344 30.0799 27.9999 29.8286 28 29.573V13.427C27.9999 13.1485 27.9222 12.8756 27.7757 12.6387C27.6292 12.4019 27.4196 12.2105 27.1705 12.086L19 8V27.5ZM19 27.5V8V27.5Z" stroke="black" stroke-width="2" stroke-linecap="round" stroke-linejoin="round"/>
</svg>
